<svg width="869" height="794" viewBox="0 0 869 794" fill="none" xmlns="http://www.w3.org/2000/svg">
<rect width="869" height="794" fill="white"/>
<circle cx="436" cy="397" r="264" fill="#EFEFEF" style="mix-blend-mode:color-burn"/>
<circle cx="436" cy="397" r="264" stroke="black" stroke-width="4"/>
<path d="M407.899 348.909C407.899 330.102 396.422 319.023 381.166 319.023C365.882 319.023 354.433 330.102 354.433 348.909C354.433 367.688 365.882 378.795 381.166 378.795C396.422 378.795 407.899 367.716 407.899 348.909ZM397.303 348.909C397.303 362.148 390.655 369.335 381.166 369.335C371.706 369.335 365.03 362.148 365.03 348.909C365.03 335.67 371.706 328.483 381.166 328.483C390.655 328.483 397.303 335.67 397.303 348.909ZM454.54 319.818V356.949C454.54 364.25 449.455 369.477 441.472 369.477C433.46 369.477 428.403 364.25 428.403 356.949V319.818H417.864V357.83C417.864 370.33 427.239 378.881 441.472 378.881C455.648 378.881 465.08 370.33 465.08 357.83V319.818H454.54ZM476.536 378H487.075V356.693H497.814L509.234 378H520.996L508.411 354.932C515.257 352.176 518.865 346.324 518.865 338.426C518.865 327.318 511.706 319.818 498.354 319.818H476.536V378ZM487.075 347.943V328.625H496.734C504.604 328.625 508.126 332.233 508.126 338.426C508.126 344.619 504.604 347.943 496.791 347.943H487.075ZM326.77 475H337.31V450.284H361.486V441.449H337.31V425.653H364.043V416.818H326.77V475ZM373.645 475H409.81V466.165H384.185V416.818H373.645V475ZM468.68 445.909C468.68 427.102 457.203 416.023 441.947 416.023C426.663 416.023 415.214 427.102 415.214 445.909C415.214 464.688 426.663 475.795 441.947 475.795C457.203 475.795 468.68 464.716 468.68 445.909ZM458.084 445.909C458.084 459.148 451.436 466.335 441.947 466.335C432.487 466.335 425.811 459.148 425.811 445.909C425.811 432.67 432.487 425.483 441.947 425.483C451.436 425.483 458.084 432.67 458.084 445.909ZM489.405 475H499.803L511.479 434.176H511.933L523.581 475H533.979L550.399 416.818H539.064L528.581 459.602H528.07L516.848 416.818H506.536L495.342 459.574H494.803L484.32 416.818H472.984L489.405 475Z" fill="black"/>
<circle cx="250" cy="190" r="109" fill="white" stroke="#D7D8D7" stroke-width="2"/>
<path d="M217.516 185.344H220.559C220.499 182.395 217.985 180.307 214.269 180.307C210.604 180.307 207.851 182.369 207.86 185.455C207.86 187.96 209.641 189.401 212.513 190.142L214.499 190.653C216.382 191.131 217.627 191.719 217.635 193.074C217.627 194.565 216.212 195.562 214.15 195.562C212.172 195.562 210.638 194.676 210.51 192.844H207.4C207.527 196.312 210.11 198.264 214.175 198.264C218.36 198.264 220.789 196.176 220.797 193.099C220.789 190.074 218.292 188.693 215.667 188.071L214.03 187.662C212.598 187.321 211.047 186.716 211.064 185.259C211.073 183.946 212.249 182.983 214.226 182.983C216.11 182.983 217.354 183.861 217.516 185.344ZM238.556 186.435C238.02 182.557 235.037 180.307 231.167 180.307C226.608 180.307 223.173 183.631 223.173 189.273C223.173 194.906 226.565 198.239 231.167 198.239C235.318 198.239 238.071 195.554 238.556 192.222L235.369 192.205C234.968 194.25 233.298 195.401 231.21 195.401C228.38 195.401 226.352 193.278 226.352 189.273C226.352 185.335 228.363 183.145 231.218 183.145C233.341 183.145 235.002 184.347 235.369 186.435H238.556ZM241.452 198H244.614V191.608H247.836L251.262 198H254.79L251.015 191.08C253.069 190.253 254.151 188.497 254.151 186.128C254.151 182.795 252.003 180.545 247.998 180.545H241.452V198ZM244.614 188.983V183.188H247.512C249.873 183.188 250.929 184.27 250.929 186.128C250.929 187.986 249.873 188.983 247.529 188.983H244.614ZM268.064 180.545V191.685C268.064 193.875 266.539 195.443 264.144 195.443C261.74 195.443 260.223 193.875 260.223 191.685V180.545H257.061V191.949C257.061 195.699 259.874 198.264 264.144 198.264C268.397 198.264 271.226 195.699 271.226 191.949V180.545H268.064ZM274.663 180.545V198H277.697V185.983H277.859L282.683 197.949H284.95L289.774 186.009H289.936V198H292.97V180.545H289.1L283.919 193.193H283.714L278.532 180.545H274.663Z" fill="#333333"/>
<circle cx="250" cy="604" r="109" fill="white" stroke="#D7D8D7" stroke-width="2"/>
<path d="M201.058 613H204.219V607.801L206.154 605.517L211.362 613H215.163L208.353 603.378L215.103 595.545H211.242L204.433 603.565H204.219V595.545H201.058V613ZM219.541 613L220.982 608.696H227.544L228.993 613H232.368L226.214 595.545H222.311L216.166 613H219.541ZM221.834 606.156L224.195 599.125H224.331L226.692 606.156H221.834ZM249.011 595.545H245.866V607.443H245.712L237.496 595.545H234.667V613H237.829V601.111H237.974L246.198 613H249.011V595.545ZM252.456 613H259.521C263.518 613 265.479 610.963 265.479 608.244C265.479 605.602 263.604 604.051 261.746 603.957V603.787C263.45 603.386 264.797 602.193 264.797 600.071C264.797 597.472 262.922 595.545 259.138 595.545H252.456V613ZM255.618 610.358V605.244H259.104C261.055 605.244 262.266 606.438 262.266 607.997C262.266 609.386 261.311 610.358 259.018 610.358H255.618ZM255.618 602.969V598.153H258.814C260.672 598.153 261.635 599.134 261.635 600.48C261.635 602.014 260.391 602.969 258.746 602.969H255.618ZM270.471 613L271.911 608.696H278.474L279.923 613H283.298L277.144 595.545H273.241L267.096 613H270.471ZM272.763 606.156L275.124 599.125H275.261L277.621 606.156H272.763ZM299.94 595.545H296.795V607.443H296.642L288.426 595.545H285.597V613H288.759V601.111H288.903L297.128 613H299.94V595.545Z" fill="#333333"/>
<circle cx="619" cy="190" r="109" fill="white" stroke="#D7D8D7" stroke-width="2"/>
<path d="M589.058 198H599.907V195.349H592.219V180.545H589.058V198ZM602.651 198H614.072V195.349H605.813V190.585H613.415V187.935H605.813V183.196H614.004V180.545H602.651V198ZM619.471 198L620.911 193.696H627.474L628.923 198H632.298L626.144 180.545H622.241L616.096 198H619.471ZM621.763 191.156L624.124 184.125H624.261L626.621 191.156H621.763ZM648.94 180.545H645.795V192.443H645.642L637.426 180.545H634.597V198H637.759V186.111H637.903L646.128 198H648.94V180.545Z" fill="#333333"/>
<circle cx="619" cy="618" r="109" fill="white" stroke="#D7D8D7" stroke-width="2"/>
<path d="M563.468 612H574.888V609.349H566.63V604.585H574.232V601.935H566.63V597.196H574.82V594.545H563.468V612ZM580.688 594.545H577.066L582.512 603.273L576.998 612H580.645L584.532 605.651H584.668L588.554 612H592.219L586.756 603.273L592.134 594.545H588.529L584.668 600.938H584.532L580.688 594.545ZM593.849 597.196H599.244V612H602.38V597.196H607.775V594.545H593.849V597.196ZM610.46 612H613.622V605.608H616.843L620.27 612H623.798L620.022 605.08C622.076 604.253 623.159 602.497 623.159 600.128C623.159 596.795 621.011 594.545 617.005 594.545H610.46V612ZM613.622 602.983V597.188H616.52C618.88 597.188 619.937 598.27 619.937 600.128C619.937 601.986 618.88 602.983 616.537 602.983H613.622ZM626.069 612H637.49V609.349H629.231V604.585H636.833V601.935H629.231V597.196H637.422V594.545H626.069V612ZM640.647 594.545V612H643.681V599.983H643.843L648.667 611.949H650.934L655.758 600.009H655.92V612H658.954V594.545H655.085L649.903 607.193H649.699L644.517 594.545H640.647ZM662.397 612H673.818V609.349H665.559V604.585H673.162V601.935H665.559V597.196H673.75V594.545H662.397V612ZM526.858 641H530.02V635.102H533.361C537.392 635.102 539.557 632.682 539.557 629.324C539.557 625.991 537.418 623.545 533.404 623.545H526.858V641ZM530.02 632.503V626.188H532.918C535.287 626.188 536.336 627.466 536.336 629.324C536.336 631.182 535.287 632.503 532.935 632.503H530.02ZM542.304 641H545.466V634.608H548.687L552.113 641H555.642L551.866 634.08C553.92 633.253 555.002 631.497 555.002 629.128C555.002 625.795 552.855 623.545 548.849 623.545H542.304V641ZM545.466 631.983V626.188H548.363C550.724 626.188 551.781 627.27 551.781 629.128C551.781 630.986 550.724 631.983 548.38 631.983H545.466ZM573.51 632.273C573.51 626.631 570.066 623.307 565.49 623.307C560.904 623.307 557.47 626.631 557.47 632.273C557.47 637.906 560.904 641.239 565.49 641.239C570.066 641.239 573.51 637.915 573.51 632.273ZM570.331 632.273C570.331 636.244 568.336 638.401 565.49 638.401C562.652 638.401 560.649 636.244 560.649 632.273C560.649 628.301 562.652 626.145 565.49 626.145C568.336 626.145 570.331 628.301 570.331 632.273ZM588.192 629.119H591.414C590.877 625.693 587.911 623.307 584.05 623.307C579.482 623.307 576.056 626.665 576.056 632.29C576.056 637.812 579.328 641.239 584.144 641.239C588.465 641.239 591.559 638.46 591.559 633.96V631.864H584.476V634.335H588.499C588.448 636.824 586.786 638.401 584.161 638.401C581.238 638.401 579.235 636.21 579.235 632.256C579.235 628.327 581.272 626.145 584.093 626.145C586.198 626.145 587.63 627.27 588.192 629.119ZM594.616 641H597.778V634.608H601L604.426 641H607.954L604.179 634.08C606.233 633.253 607.315 631.497 607.315 629.128C607.315 625.795 605.167 623.545 601.162 623.545H594.616V641ZM597.778 631.983V626.188H600.676C603.037 626.188 604.093 627.27 604.093 629.128C604.093 630.986 603.037 631.983 600.693 631.983H597.778ZM612.467 641L613.907 636.696H620.47L621.919 641H625.294L619.14 623.545H615.237L609.092 641H612.467ZM614.76 634.156L617.12 627.125H617.257L619.618 634.156H614.76ZM627.593 623.545V641H630.627V628.983H630.789L635.613 640.949H637.88L642.703 629.009H642.865V641H645.9V623.545H642.03L636.848 636.193H636.644L631.462 623.545H627.593ZM649.343 623.545V641H652.377V628.983H652.539L657.363 640.949H659.63L664.453 629.009H664.615V641H667.65V623.545H663.78L658.598 636.193H658.394L653.212 623.545H649.343ZM674.255 623.545H671.093V641H674.255V623.545ZM692.022 623.545H688.877V635.443H688.724L680.508 623.545H677.679V641H680.841V629.111H680.985L689.21 641H692.022V623.545ZM707.161 629.119H710.382C709.846 625.693 706.88 623.307 703.019 623.307C698.451 623.307 695.025 626.665 695.025 632.29C695.025 637.812 698.297 641.239 703.113 641.239C707.434 641.239 710.527 638.46 710.527 633.96V631.864H703.445V634.335H707.468C707.417 636.824 705.755 638.401 703.13 638.401C700.206 638.401 698.203 636.21 698.203 632.256C698.203 628.327 700.24 626.145 703.061 626.145C705.167 626.145 706.598 627.27 707.161 629.119Z" fill="#333333"/>
</svg>
