<svg width="869" height="794" viewBox="0 0 869 794" fill="none" xmlns="http://www.w3.org/2000/svg">
<rect width="869" height="794" fill="white"/>
<circle cx="419" cy="412" r="264" fill="#EFEFEF" style="mix-blend-mode:color-burn"/>
<circle cx="419" cy="412" r="264" stroke="black" stroke-width="4"/>
<path d="M390.899 363.909C390.899 345.102 379.422 334.023 364.166 334.023C348.882 334.023 337.433 345.102 337.433 363.909C337.433 382.688 348.882 393.795 364.166 393.795C379.422 393.795 390.899 382.716 390.899 363.909ZM380.303 363.909C380.303 377.148 373.655 384.335 364.166 384.335C354.706 384.335 348.03 377.148 348.03 363.909C348.03 350.67 354.706 343.483 364.166 343.483C373.655 343.483 380.303 350.67 380.303 363.909ZM437.54 334.818V371.949C437.54 379.25 432.455 384.477 424.472 384.477C416.46 384.477 411.403 379.25 411.403 371.949V334.818H400.864V372.83C400.864 385.33 410.239 393.881 424.472 393.881C438.648 393.881 448.08 385.33 448.08 372.83V334.818H437.54ZM459.536 393H470.075V371.693H480.814L492.234 393H503.996L491.411 369.932C498.257 367.176 501.865 361.324 501.865 353.426C501.865 342.318 494.706 334.818 481.354 334.818H459.536V393ZM470.075 362.943V343.625H479.734C487.604 343.625 491.126 347.233 491.126 353.426C491.126 359.619 487.604 362.943 479.791 362.943H470.075ZM309.77 490H320.31V465.284H344.486V456.449H320.31V440.653H347.043V431.818H309.77V490ZM356.645 490H392.81V481.165H367.185V431.818H356.645V490ZM451.68 460.909C451.68 442.102 440.203 431.023 424.947 431.023C409.663 431.023 398.214 442.102 398.214 460.909C398.214 479.688 409.663 490.795 424.947 490.795C440.203 490.795 451.68 479.716 451.68 460.909ZM441.084 460.909C441.084 474.148 434.436 481.335 424.947 481.335C415.487 481.335 408.811 474.148 408.811 460.909C408.811 447.67 415.487 440.483 424.947 440.483C434.436 440.483 441.084 447.67 441.084 460.909ZM472.405 490H482.803L494.479 449.176H494.933L506.581 490H516.979L533.399 431.818H522.064L511.581 474.602H511.07L499.848 431.818H489.536L478.342 474.574H477.803L467.32 431.818H455.984L472.405 490Z" fill="black"/>
<circle cx="216" cy="190" r="149" fill="white" stroke="#D7D8D7" stroke-width="2"/>
<path d="M182.516 186.344H185.559C185.499 183.395 182.985 181.307 179.269 181.307C175.604 181.307 172.851 183.369 172.86 186.455C172.86 188.96 174.641 190.401 177.513 191.142L179.499 191.653C181.382 192.131 182.627 192.719 182.635 194.074C182.627 195.565 181.212 196.562 179.15 196.562C177.172 196.562 175.638 195.676 175.51 193.844H172.4C172.527 197.312 175.11 199.264 179.175 199.264C183.36 199.264 185.789 197.176 185.797 194.099C185.789 191.074 183.292 189.693 180.667 189.071L179.03 188.662C177.598 188.321 176.047 187.716 176.064 186.259C176.073 184.946 177.249 183.983 179.226 183.983C181.11 183.983 182.354 184.861 182.516 186.344ZM203.556 187.435C203.02 183.557 200.037 181.307 196.167 181.307C191.608 181.307 188.173 184.631 188.173 190.273C188.173 195.906 191.565 199.239 196.167 199.239C200.318 199.239 203.071 196.554 203.556 193.222L200.369 193.205C199.968 195.25 198.298 196.401 196.21 196.401C193.38 196.401 191.352 194.278 191.352 190.273C191.352 186.335 193.363 184.145 196.218 184.145C198.341 184.145 200.002 185.347 200.369 187.435H203.556ZM206.452 199H209.614V192.608H212.836L216.262 199H219.79L216.015 192.08C218.069 191.253 219.151 189.497 219.151 187.128C219.151 183.795 217.003 181.545 212.998 181.545H206.452V199ZM209.614 189.983V184.188H212.512C214.873 184.188 215.929 185.27 215.929 187.128C215.929 188.986 214.873 189.983 212.529 189.983H209.614ZM233.064 181.545V192.685C233.064 194.875 231.539 196.443 229.144 196.443C226.74 196.443 225.223 194.875 225.223 192.685V181.545H222.061V192.949C222.061 196.699 224.874 199.264 229.144 199.264C233.397 199.264 236.226 196.699 236.226 192.949V181.545H233.064ZM239.663 181.545V199H242.697V186.983H242.859L247.683 198.949H249.95L254.774 187.009H254.936V199H257.97V181.545H254.1L248.919 194.193H248.714L243.532 181.545H239.663Z" fill="#333333"/>
<circle cx="418" cy="674" r="79" fill="white" stroke="#D7D8D7" stroke-width="2"/>
<path d="M369.058 683H372.219V677.801L374.154 675.517L379.362 683H383.163L376.353 673.378L383.103 665.545H379.242L372.433 673.565H372.219V665.545H369.058V683ZM387.541 683L388.982 678.696H395.544L396.993 683H400.368L394.214 665.545H390.311L384.166 683H387.541ZM389.834 676.156L392.195 669.125H392.331L394.692 676.156H389.834ZM417.011 665.545H413.866V677.443H413.712L405.496 665.545H402.667V683H405.829V671.111H405.974L414.198 683H417.011V665.545ZM420.456 683H427.521C431.518 683 433.479 680.963 433.479 678.244C433.479 675.602 431.604 674.051 429.746 673.957V673.787C431.45 673.386 432.797 672.193 432.797 670.071C432.797 667.472 430.922 665.545 427.138 665.545H420.456V683ZM423.618 680.358V675.244H427.104C429.055 675.244 430.266 676.438 430.266 677.997C430.266 679.386 429.311 680.358 427.018 680.358H423.618ZM423.618 672.969V668.153H426.814C428.672 668.153 429.635 669.134 429.635 670.48C429.635 672.014 428.391 672.969 426.746 672.969H423.618ZM438.471 683L439.911 678.696H446.474L447.923 683H451.298L445.144 665.545H441.241L435.096 683H438.471ZM440.763 676.156L443.124 669.125H443.261L445.621 676.156H440.763ZM467.94 665.545H464.795V677.443H464.642L456.426 665.545H453.597V683H456.759V671.111H456.903L465.128 683H467.94V665.545Z" fill="#333333"/>
<circle cx="157" cy="544" r="109" fill="white" stroke="#D7D8D7" stroke-width="2"/>
<path d="M120.113 538C125.431 538 128.585 534.71 128.585 529.256C128.585 523.818 125.431 520.545 120.232 520.545H114.198V538H120.113ZM117.36 535.264V523.281H120.053C123.599 523.281 125.448 525.259 125.448 529.256C125.448 533.27 123.599 535.264 119.96 535.264H117.36ZM131.589 538H143.009V535.349H134.751V530.585H142.353V527.935H134.751V523.196H142.941V520.545H131.589V538ZM155.653 525.344H158.695C158.636 522.395 156.121 520.307 152.406 520.307C148.741 520.307 145.988 522.369 145.996 525.455C145.996 527.96 147.778 529.401 150.65 530.142L152.636 530.653C154.519 531.131 155.763 531.719 155.772 533.074C155.763 534.565 154.349 535.562 152.286 535.562C150.309 535.562 148.775 534.676 148.647 532.844H145.536C145.664 536.312 148.246 538.264 152.312 538.264C156.496 538.264 158.925 536.176 158.934 533.099C158.925 530.074 156.428 528.693 153.803 528.071L152.167 527.662C150.735 527.321 149.184 526.716 149.201 525.259C149.21 523.946 150.386 522.983 152.363 522.983C154.246 522.983 155.491 523.861 155.653 525.344ZM164.915 520.545H161.753V538H164.915V520.545ZM180.032 526.119H183.254C182.717 522.693 179.751 520.307 175.89 520.307C171.322 520.307 167.896 523.665 167.896 529.29C167.896 534.812 171.168 538.239 175.984 538.239C180.305 538.239 183.398 535.46 183.398 530.96V528.864H176.316V531.335H180.339C180.288 533.824 178.626 535.401 176.001 535.401C173.077 535.401 171.075 533.21 171.075 529.256C171.075 525.327 173.112 523.145 175.933 523.145C178.038 523.145 179.469 524.27 180.032 526.119ZM200.8 520.545H197.655V532.443H197.501L189.286 520.545H186.456V538H189.618V526.111H189.763L197.987 538H200.8V520.545ZM100.048 552.196H105.443V567H108.58V552.196H113.974V549.545H100.048V552.196ZM116.659 567H119.821V559.585H127.909V567H131.08V549.545H127.909V556.935H119.821V549.545H116.659V567ZM137.68 549.545H134.518V567H137.68V549.545ZM155.448 549.545H152.303V561.443H152.15L143.934 549.545H141.104V567H144.266V555.111H144.411L152.636 567H155.448V549.545ZM158.893 567H162.055V561.801L163.99 559.517L169.197 567H172.999L166.189 557.378L172.939 549.545H169.078L162.268 557.565H162.055V549.545H158.893V567ZM178.298 549.545H175.136V567H178.298V549.545ZM196.065 549.545H192.92V561.443H192.767L184.551 549.545H181.722V567H184.884V555.111H185.028L193.253 567H196.065V549.545ZM211.204 555.119H214.425C213.888 551.693 210.923 549.307 207.062 549.307C202.494 549.307 199.067 552.665 199.067 558.29C199.067 563.812 202.34 567.239 207.156 567.239C211.477 567.239 214.57 564.46 214.57 559.96V557.864H207.488V560.335H211.511C211.46 562.824 209.798 564.401 207.173 564.401C204.249 564.401 202.246 562.21 202.246 558.256C202.246 554.327 204.283 552.145 207.104 552.145C209.21 552.145 210.641 553.27 211.204 555.119Z" fill="#333333"/>
<circle cx="602" cy="204" r="99" fill="white" stroke="#D7D8D7" stroke-width="2"/>
<path d="M572.058 213H582.907V210.349H575.219V195.545H572.058V213ZM585.651 213H597.072V210.349H588.813V205.585H596.415V202.935H588.813V198.196H597.004V195.545H585.651V213ZM602.471 213L603.911 208.696H610.474L611.923 213H615.298L609.144 195.545H605.241L599.096 213H602.471ZM604.763 206.156L607.124 199.125H607.261L609.621 206.156H604.763ZM631.94 195.545H628.795V207.443H628.642L620.426 195.545H617.597V213H620.759V201.111H620.903L629.128 213H631.94V195.545Z" fill="#333333"/>
<circle cx="702" cy="544" r="119" fill="white" stroke="#D7D8D7" stroke-width="2"/>
<path d="M646.468 538H657.888V535.349H649.63V530.585H657.232V527.935H649.63V523.196H657.82V520.545H646.468V538ZM663.688 520.545H660.066L665.512 529.273L659.998 538H663.645L667.532 531.651H667.668L671.554 538H675.219L669.756 529.273L675.134 520.545H671.529L667.668 526.938H667.532L663.688 520.545ZM676.849 523.196H682.244V538H685.38V523.196H690.775V520.545H676.849V523.196ZM693.46 538H696.622V531.608H699.843L703.27 538H706.798L703.022 531.08C705.076 530.253 706.159 528.497 706.159 526.128C706.159 522.795 704.011 520.545 700.005 520.545H693.46V538ZM696.622 528.983V523.188H699.52C701.88 523.188 702.937 524.27 702.937 526.128C702.937 527.986 701.88 528.983 699.537 528.983H696.622ZM709.069 538H720.49V535.349H712.231V530.585H719.833V527.935H712.231V523.196H720.422V520.545H709.069V538ZM723.647 520.545V538H726.681V525.983H726.843L731.667 537.949H733.934L738.758 526.009H738.92V538H741.954V520.545H738.085L732.903 533.193H732.699L727.517 520.545H723.647ZM745.397 538H756.818V535.349H748.559V530.585H756.162V527.935H748.559V523.196H756.75V520.545H745.397V538ZM609.858 567H613.02V561.102H616.361C620.392 561.102 622.557 558.682 622.557 555.324C622.557 551.991 620.418 549.545 616.404 549.545H609.858V567ZM613.02 558.503V552.188H615.918C618.287 552.188 619.336 553.466 619.336 555.324C619.336 557.182 618.287 558.503 615.935 558.503H613.02ZM625.304 567H628.466V560.608H631.687L635.113 567H638.642L634.866 560.08C636.92 559.253 638.002 557.497 638.002 555.128C638.002 551.795 635.855 549.545 631.849 549.545H625.304V567ZM628.466 557.983V552.188H631.363C633.724 552.188 634.781 553.27 634.781 555.128C634.781 556.986 633.724 557.983 631.38 557.983H628.466ZM656.51 558.273C656.51 552.631 653.066 549.307 648.49 549.307C643.904 549.307 640.47 552.631 640.47 558.273C640.47 563.906 643.904 567.239 648.49 567.239C653.066 567.239 656.51 563.915 656.51 558.273ZM653.331 558.273C653.331 562.244 651.336 564.401 648.49 564.401C645.652 564.401 643.649 562.244 643.649 558.273C643.649 554.301 645.652 552.145 648.49 552.145C651.336 552.145 653.331 554.301 653.331 558.273ZM671.192 555.119H674.414C673.877 551.693 670.911 549.307 667.05 549.307C662.482 549.307 659.056 552.665 659.056 558.29C659.056 563.812 662.328 567.239 667.144 567.239C671.465 567.239 674.559 564.46 674.559 559.96V557.864H667.476V560.335H671.499C671.448 562.824 669.786 564.401 667.161 564.401C664.238 564.401 662.235 562.21 662.235 558.256C662.235 554.327 664.272 552.145 667.093 552.145C669.198 552.145 670.63 553.27 671.192 555.119ZM677.616 567H680.778V560.608H684L687.426 567H690.954L687.179 560.08C689.233 559.253 690.315 557.497 690.315 555.128C690.315 551.795 688.167 549.545 684.162 549.545H677.616V567ZM680.778 557.983V552.188H683.676C686.037 552.188 687.093 553.27 687.093 555.128C687.093 556.986 686.037 557.983 683.693 557.983H680.778ZM695.467 567L696.907 562.696H703.47L704.919 567H708.294L702.14 549.545H698.237L692.092 567H695.467ZM697.76 560.156L700.12 553.125H700.257L702.618 560.156H697.76ZM710.593 549.545V567H713.627V554.983H713.789L718.613 566.949H720.88L725.703 555.009H725.865V567H728.9V549.545H725.03L719.848 562.193H719.644L714.462 549.545H710.593ZM732.343 549.545V567H735.377V554.983H735.539L740.363 566.949H742.63L747.453 555.009H747.615V567H750.65V549.545H746.78L741.598 562.193H741.394L736.212 549.545H732.343ZM757.255 549.545H754.093V567H757.255V549.545ZM775.022 549.545H771.877V561.443H771.724L763.508 549.545H760.679V567H763.841V555.111H763.985L772.21 567H775.022V549.545ZM790.161 555.119H793.382C792.846 551.693 789.88 549.307 786.019 549.307C781.451 549.307 778.025 552.665 778.025 558.29C778.025 563.812 781.297 567.239 786.113 567.239C790.434 567.239 793.527 564.46 793.527 559.96V557.864H786.445V560.335H790.468C790.417 562.824 788.755 564.401 786.13 564.401C783.206 564.401 781.203 562.21 781.203 558.256C781.203 554.327 783.24 552.145 786.061 552.145C788.167 552.145 789.598 553.27 790.161 555.119Z" fill="#333333"/>
</svg>
