<svg width="24" height="24" viewBox="0 0 64 64" fill="none" xmlns="http://www.w3.org/2000/svg">
<path d="M52.5474 22.9035C50.1895 16.5035 45.1368 11.4508 38.7368 9.09293C38.7368 4.37714 35.0316 0.671875 30.3158 0.671875C25.6 0.671875 21.8947 4.71398 21.8947 9.42977C15.4947 11.7877 10.4421 16.8403 8.08421 22.9035C3.70526 22.9035 0 26.9456 0 31.3245C0 35.7035 3.70526 39.7456 8.42105 39.7456C10.7789 46.1456 15.8316 51.1982 22.2316 53.5561C22.2316 58.2719 25.9368 61.9771 30.6526 61.9771C35.3684 61.9771 39.0737 58.2719 39.0737 53.5561C45.4737 51.1982 50.5263 46.1456 52.8842 39.7456C57.6 39.7456 61.3053 36.0403 61.3053 31.3245C61.3053 26.6087 56.9263 22.9035 52.5474 22.9035ZM30.3158 4.37714C32.6737 4.37714 34.6947 6.06135 35.3684 8.41924C35.3684 8.75609 35.3684 9.09293 35.3684 9.42977C35.3684 10.1035 35.0316 11.114 34.6947 11.7877C34.0211 13.4719 32 14.4824 30.3158 14.4824C28.6316 14.4824 26.6105 13.4719 25.9368 11.7877C25.6 11.114 25.2632 10.4403 25.2632 9.42977C25.2632 9.09293 25.2632 8.75609 25.2632 8.41924C25.9368 6.06135 27.9579 4.37714 30.3158 4.37714ZM7.07368 36.3771C5.05263 35.7035 3.36842 33.6824 3.36842 31.3245C3.36842 28.9666 5.05263 26.9456 7.41053 26.2719C7.74737 26.2719 8.08421 26.2719 8.42105 26.2719C9.09474 26.2719 10.1053 26.6087 10.7789 26.9456C12.1263 27.6192 13.4737 29.3035 13.4737 31.3245C13.4737 33.3456 12.4632 35.0298 10.7789 35.7035C10.1053 36.0403 9.43158 36.3771 8.42105 36.3771C7.74737 36.3771 7.41053 36.3771 7.07368 36.3771ZM30.3158 58.6087C27.9579 58.6087 25.9368 56.9245 25.2632 54.5666C25.2632 54.2298 25.2632 53.8929 25.2632 53.5561C25.2632 52.8824 25.6 51.8719 25.9368 51.1982C26.6105 49.514 28.6316 48.5035 30.3158 48.5035C32 48.5035 34.0211 49.514 34.6947 51.1982C35.0316 51.8719 35.3684 52.5456 35.3684 53.5561C35.3684 53.8929 35.3684 54.2298 35.3684 54.5666C34.6947 56.9245 32.6737 58.6087 30.3158 58.6087ZM38.0632 50.1877C36.7158 47.1561 33.6842 45.135 30.3158 45.135C26.9474 45.135 23.9158 47.1561 22.5684 50.1877C17.5158 48.1666 13.4737 44.1245 11.4526 39.0719C14.4842 38.0614 16.8421 35.0298 16.8421 31.3245C16.8421 27.6192 14.4842 24.9245 11.4526 23.5771C13.4737 18.5245 17.5158 14.8192 22.5684 12.4613C23.9158 15.8298 26.9474 17.8508 30.3158 17.8508C33.6842 17.8508 36.7158 15.8298 38.0632 12.7982C43.1158 14.8192 47.1579 18.8613 49.1789 23.914C46.1474 25.2613 44.1263 28.2929 44.1263 31.6613C44.1263 35.0298 46.1474 38.0613 49.1789 39.4087C47.1579 44.1245 43.1158 48.1666 38.0632 50.1877ZM53.5579 36.3771C53.2211 36.3771 52.8842 36.3771 52.5474 36.3771C51.8737 36.3771 50.8632 36.0403 50.1895 35.7035C48.5053 35.0298 47.4947 33.0087 47.4947 31.3245C47.4947 29.6403 48.5053 27.6192 50.1895 26.9456C50.8632 26.6087 51.5368 26.2719 52.5474 26.2719C52.8842 26.2719 53.2211 26.2719 53.5579 26.2719C55.9158 26.9456 57.6 28.6298 57.6 31.3245C57.6 34.0192 55.5789 35.7035 53.5579 36.3771Z" fill="black"/>
</svg>
