<svg width="24" height="24" viewBox="0 0 64 64" fill="none" xmlns="http://www.w3.org/2000/svg">
<path d="M47.4941 49.5846C53.2204 45.8615 56.9257 39.4308 56.9257 31.9846C56.9257 20.4769 47.4941 11 36.0415 11C24.5889 11 15.1573 20.4769 15.1573 31.9846V35.3692L7.74675 27.9231L5.38886 30.2923L16.8415 42.1385L27.9573 30.9692L25.5994 28.6L18.1889 36.0462V32.3231C18.1889 22.5077 25.9362 14.7231 35.7046 14.7231C45.4731 14.7231 53.2204 22.5077 53.2204 32.3231C53.2204 42.1385 45.4731 49.9231 35.7046 49.9231C30.9889 49.9231 26.6099 48.2308 23.2415 44.8462L21.2204 46.8769C22.231 47.8923 23.5783 48.9077 24.5889 49.5846H1.68359V52.9692H62.9889V49.5846H47.4941Z" fill="black"/>
</svg>
