<svg width="24" height="24" viewBox="0 0 64 64" fill="none" xmlns="http://www.w3.org/2000/svg">
<path d="M63.2887 22.3994L50.8443 3.19939L49.422 2.48828H14.5776L13.1554 3.19939L0.710938 22.3994V24.5327L30.5776 61.1549H33.422L63.2887 24.5327V22.3994ZM31.9998 7.82161L39.1109 21.3327H25.2443L31.9998 7.82161ZM22.7554 18.8438L17.4221 5.68828H29.1554L22.7554 18.8438ZM34.8443 5.68828H46.5776L41.5998 18.8438L34.8443 5.68828ZM39.822 25.2438L31.9998 52.2661L24.8887 25.2438H39.822ZM28.4443 52.6216L6.04427 25.2438H21.3332L28.4443 52.6216ZM43.7332 25.2438H58.3109L35.1998 53.3327L43.7332 25.2438ZM44.7998 21.6883L49.7776 8.17717L58.6665 21.6883H44.7998ZM14.222 7.82161L19.9109 21.3327H5.33316L14.222 7.82161Z" fill="black"/>
</svg>
