<svg width="24" height="22" viewBox="0 0 64 58" fill="none" xmlns="http://www.w3.org/2000/svg">
<path d="M33.282 1.61328H30.082V55.7466H33.282V1.61328Z" fill="black"/>
<path d="M18.5625 2.25964C18.5625 2.25964 24.9625 16.4374 24.9625 28.6819C24.9625 43.1819 18.8825 54.7819 18.8825 55.1041L21.7625 56.7152C22.0825 56.0708 28.4825 44.1485 28.4825 29.0041C28.4825 15.793 22.0825 1.93741 22.0825 1.29297L18.5625 2.25964Z" fill="black"/>
<path d="M44.1625 2.57986L41.2825 0.96875C40.9625 1.61319 34.5625 13.5354 34.5625 28.6799C34.5625 41.891 40.9625 55.7465 40.9625 56.391L43.8425 55.1021C43.8425 55.1021 37.4425 40.9243 37.4425 28.6799C38.0825 14.5021 44.1625 2.57986 44.1625 2.57986Z" fill="black"/>
<path d="M61.4409 27.3934H47.0409L53.1209 21.2712L50.8809 19.0156L40.9609 29.0045L50.8809 38.9934L53.1209 36.7378L47.0409 30.6156H61.4409V27.3934Z" fill="black"/>
<path d="M11.8416 19.0156L9.60156 21.2712L15.6816 27.3934H1.60156V30.6156H15.6816L9.92156 36.7378L12.1616 38.9934L22.0816 29.0045L11.8416 19.0156Z" fill="black"/>
</svg>
