<svg width="1024" height="1801" viewBox="0 0 1024 1801" fill="none" xmlns="http://www.w3.org/2000/svg">
<rect width="1024" height="1801" fill="white"/>
<path d="M576 293H373C352.565 293 336 309.565 336 330V330" stroke="#777777" stroke-width="2"/>
<path d="M569.5 285.321L577.5 293.115L569.5 300.5" stroke="#777777" stroke-width="2" stroke-linecap="round" stroke-linejoin="round"/>
<circle cx="336" cy="335.5" r="5.5" transform="rotate(90 336 335.5)" stroke="#777777" stroke-width="2"/>
<rect x="443.5" y="272.5" width="59" height="38" rx="7.5" fill="white"/>
<path d="M459.399 285.364L463.632 292.659V297H465.734V292.659L469.967 285.364H467.587L464.74 290.511H464.626L461.78 285.364H459.399ZM473.608 297.17C475.642 297.17 477.04 296.176 477.403 294.659L475.483 294.443C475.205 295.182 474.523 295.568 473.636 295.568C472.307 295.568 471.426 294.693 471.409 293.199H477.489V292.568C477.489 289.506 475.648 288.159 473.5 288.159C471 288.159 469.369 289.994 469.369 292.688C469.369 295.426 470.977 297.17 473.608 297.17ZM471.415 291.812C471.477 290.699 472.301 289.761 473.528 289.761C474.71 289.761 475.506 290.625 475.517 291.812H471.415ZM486.126 290.58C485.842 289.102 484.661 288.159 482.615 288.159C480.513 288.159 479.081 289.193 479.087 290.807C479.081 292.08 479.865 292.92 481.541 293.267L483.03 293.58C483.831 293.756 484.206 294.08 484.206 294.574C484.206 295.17 483.558 295.619 482.581 295.619C481.638 295.619 481.024 295.21 480.848 294.426L478.842 294.619C479.098 296.222 480.445 297.17 482.587 297.17C484.768 297.17 486.308 296.04 486.314 294.386C486.308 293.142 485.507 292.381 483.859 292.023L482.371 291.705C481.484 291.506 481.132 291.199 481.138 290.693C481.132 290.102 481.786 289.693 482.643 289.693C483.592 289.693 484.092 290.21 484.251 290.784L486.126 290.58Z" fill="#777777"/>
<rect x="443.5" y="272.5" width="59" height="38" rx="7.5" stroke="#777777"/>
<path d="M585 941H376C353.909 941 336 923.091 336 901V746" stroke="#777777" stroke-width="2"/>
<path d="M328.321 752.5L336.115 744.5L343.5 752.5" stroke="#777777" stroke-width="2" stroke-linecap="round" stroke-linejoin="round"/>
<circle cx="590.5" cy="940.5" r="5.5" transform="rotate(90 590.5 940.5)" stroke="#777777" stroke-width="2"/>
<rect x="443.5" y="920.5" width="59" height="38" rx="7.5" fill="white"/>
<path d="M472.913 933.364H470.817V941.295H470.714L465.237 933.364H463.351V945H465.459V937.074H465.555L471.038 945H472.913V933.364ZM478.926 945.17C481.483 945.17 483.108 943.369 483.108 940.67C483.108 937.966 481.483 936.159 478.926 936.159C476.369 936.159 474.744 937.966 474.744 940.67C474.744 943.369 476.369 945.17 478.926 945.17ZM478.938 943.523C477.523 943.523 476.83 942.261 476.83 940.665C476.83 939.068 477.523 937.79 478.938 937.79C480.33 937.79 481.023 939.068 481.023 940.665C481.023 942.261 480.33 943.523 478.938 943.523Z" fill="#777777"/>
<rect x="443.5" y="920.5" width="59" height="38" rx="7.5" stroke="#777777"/>
<path d="M618 100.5C618 89.1782 627.178 80 638.5 80H711.5C722.822 80 732 89.1782 732 100.5C732 111.822 722.822 121 711.5 121H638.5C627.178 121 618 111.822 618 100.5Z" fill="#EFEFEF"/>
<path d="M658.747 98.6172H660.521C660.487 96.897 659.02 95.679 656.852 95.679C654.715 95.679 653.109 96.8821 653.114 98.6818C653.114 100.143 654.153 100.984 655.828 101.416L656.987 101.714C658.085 101.993 658.811 102.336 658.816 103.126C658.811 103.996 657.986 104.578 656.783 104.578C655.629 104.578 654.735 104.061 654.66 102.992H652.845C652.92 105.016 654.426 106.154 656.798 106.154C659.239 106.154 660.656 104.936 660.661 103.141C660.656 101.376 659.199 100.571 657.668 100.208L656.713 99.9695C655.878 99.7706 654.973 99.4176 654.983 98.5675C654.988 97.8018 655.674 97.2401 656.828 97.2401C657.926 97.2401 658.652 97.7521 658.747 98.6172ZM661.858 97.3643H665.005V106H666.834V97.3643H669.981V95.8182H661.858V97.3643ZM671.624 106L672.464 103.489H676.293L677.138 106H679.107L675.517 95.8182H673.24L669.656 106H671.624ZM672.962 102.008L674.339 97.9062H674.418L675.795 102.008H672.962ZM680.448 106H682.292V102.271H684.171L686.17 106H688.228L686.026 101.963C687.224 101.481 687.855 100.457 687.855 99.0746C687.855 97.1307 686.602 95.8182 684.266 95.8182H680.448V106ZM682.292 100.74V97.3594H683.982C685.36 97.3594 685.976 97.9908 685.976 99.0746C685.976 100.158 685.36 100.74 683.992 100.74H682.292ZM689.106 97.3643H692.253V106H694.082V97.3643H697.229V95.8182H689.106V97.3643Z" fill="black"/>
<path d="M638.5 81.6H711.5V78.4H638.5V81.6ZM711.5 119.4H638.5V122.6H711.5V119.4ZM638.5 119.4C628.062 119.4 619.6 110.938 619.6 100.5H616.4C616.4 112.705 626.295 122.6 638.5 122.6V119.4ZM730.4 100.5C730.4 110.938 721.938 119.4 711.5 119.4V122.6C723.705 122.6 733.6 112.705 733.6 100.5H730.4ZM711.5 81.6C721.938 81.6 730.4 90.0618 730.4 100.5H733.6C733.6 88.2945 723.705 78.4 711.5 78.4V81.6ZM638.5 78.4C626.295 78.4 616.4 88.2945 616.4 100.5H619.6C619.6 90.0618 628.062 81.6 638.5 81.6V78.4Z" fill="black"/>
<rect width="110" height="20" transform="translate(685 131) rotate(90)" fill="white"/>
<line x1="674.5" y1="141" x2="674.5" y2="240" stroke="#777777" stroke-width="2"/>
<path d="M684 230L674.5 240.5L665.5 230" stroke="#777777" stroke-width="2" stroke-linecap="round" stroke-linejoin="round"/>
<circle cx="674" cy="136.5" r="5.5" transform="rotate(90 674 136.5)" stroke="#777777" stroke-width="2"/>
<line x1="674.5" y1="353" x2="674.5" y2="452" stroke="#777777" stroke-width="2"/>
<path d="M684 442L674.5 452.5L665.5 442" stroke="#777777" stroke-width="2" stroke-linecap="round" stroke-linejoin="round"/>
<circle cx="674" cy="348.5" r="5.5" transform="rotate(90 674 348.5)" stroke="#777777" stroke-width="2"/>
<line x1="674.5" y1="546" x2="674.5" y2="645" stroke="#777777" stroke-width="2"/>
<path d="M684 635L674.5 645.5L665.5 635" stroke="#777777" stroke-width="2" stroke-linecap="round" stroke-linejoin="round"/>
<circle cx="674" cy="541.5" r="5.5" transform="rotate(90 674 541.5)" stroke="#777777" stroke-width="2"/>
<line x1="335.5" y1="598" x2="335.5" y2="499" stroke="#777777" stroke-width="2"/>
<path d="M326 509L335.5 498.5L344.5 509" stroke="#777777" stroke-width="2" stroke-linecap="round" stroke-linejoin="round"/>
<circle cx="336" cy="602.5" r="5.5" transform="rotate(-90 336 602.5)" stroke="#777777" stroke-width="2"/>
<line x1="674.5" y1="758" x2="674.5" y2="857" stroke="#777777" stroke-width="2"/>
<path d="M684 847L674.5 857.5L665.5 847" stroke="#777777" stroke-width="2" stroke-linecap="round" stroke-linejoin="round"/>
<circle cx="674" cy="753.5" r="5.5" transform="rotate(90 674 753.5)" stroke="#777777" stroke-width="2"/>
<path d="M668.409 870.223C671.221 867.411 675.779 867.411 678.591 870.223L740.777 932.409C743.589 935.221 743.589 939.779 740.777 942.591L678.591 1004.78C675.779 1007.59 671.221 1007.59 668.409 1004.78L606.223 942.591C603.411 939.779 603.411 935.221 606.223 932.409L668.409 870.223Z" fill="white" stroke="black" stroke-width="1.6"/>
<path d="M635.146 943.218L636.316 939.923H641.021L642.191 943.218H643.669L639.396 931.582H637.941L633.669 943.218H635.146ZM636.76 938.673L638.623 933.423H638.714L640.578 938.673H636.76ZM648.845 943.4C650.777 943.4 652.049 942.218 652.277 940.673H650.936C650.686 941.627 649.89 942.195 648.845 942.195C647.254 942.195 646.231 940.877 646.231 938.854C646.231 936.877 647.277 935.582 648.845 935.582C650.027 935.582 650.731 936.309 650.936 937.104H652.277C652.049 935.468 650.663 934.377 648.822 934.377C646.459 934.377 644.89 936.241 644.89 938.9C644.89 941.513 646.39 943.4 648.845 943.4ZM657.782 943.4C659.714 943.4 660.987 942.218 661.214 940.673H659.873C659.623 941.627 658.828 942.195 657.782 942.195C656.191 942.195 655.169 940.877 655.169 938.854C655.169 936.877 656.214 935.582 657.782 935.582C658.964 935.582 659.669 936.309 659.873 937.104H661.214C660.987 935.468 659.601 934.377 657.76 934.377C655.396 934.377 653.828 936.241 653.828 938.9C653.828 941.513 655.328 943.4 657.782 943.4ZM666.834 943.4C668.606 943.4 669.902 942.513 670.311 941.195L669.015 940.832C668.674 941.741 667.885 942.195 666.834 942.195C665.26 942.195 664.174 941.178 664.112 939.309H670.447V938.741C670.447 935.491 668.515 934.377 666.697 934.377C664.334 934.377 662.765 936.241 662.765 938.923C662.765 941.604 664.311 943.4 666.834 943.4ZM664.112 938.15C664.203 936.792 665.163 935.582 666.697 935.582C668.152 935.582 669.084 936.673 669.084 938.15H664.112ZM672.487 946.491H673.828V941.877H673.941C674.237 942.354 674.805 943.4 676.487 943.4C678.669 943.4 680.191 941.65 680.191 938.877C680.191 936.127 678.669 934.377 676.464 934.377C674.76 934.377 674.237 935.423 673.941 935.877H673.782V934.491H672.487V946.491ZM673.805 938.854C673.805 936.9 674.669 935.582 676.305 935.582C678.01 935.582 678.851 937.013 678.851 938.854C678.851 940.718 677.987 942.195 676.305 942.195C674.691 942.195 673.805 940.832 673.805 938.854ZM686.032 934.491H684.169V932.4H682.828V934.491H681.51V935.627H682.828V941.082C682.828 942.604 684.055 943.332 685.191 943.332C685.691 943.332 686.01 943.241 686.191 943.173L685.919 941.968C685.805 941.991 685.623 942.036 685.328 942.036C684.737 942.036 684.169 941.854 684.169 940.718V935.627H686.032V934.491ZM691.615 943.4C693.387 943.4 694.683 942.513 695.092 941.195L693.797 940.832C693.456 941.741 692.666 942.195 691.615 942.195C690.041 942.195 688.956 941.178 688.893 939.309H695.228V938.741C695.228 935.491 693.297 934.377 691.478 934.377C689.115 934.377 687.547 936.241 687.547 938.923C687.547 941.604 689.092 943.4 691.615 943.4ZM688.893 938.15C688.984 936.792 689.944 935.582 691.478 935.582C692.933 935.582 693.865 936.673 693.865 938.15H688.893ZM700.564 943.4C702.245 943.4 702.814 942.354 703.109 941.877H703.268V943.218H704.564V931.582H703.223V935.877H703.109C702.814 935.423 702.291 934.377 700.586 934.377C698.382 934.377 696.859 936.127 696.859 938.877C696.859 941.65 698.382 943.4 700.564 943.4ZM700.745 942.195C699.064 942.195 698.2 940.718 698.2 938.854C698.2 937.013 699.041 935.582 700.745 935.582C702.382 935.582 703.245 936.9 703.245 938.854C703.245 940.832 702.359 942.195 700.745 942.195ZM708.956 939.945H710.319V939.877C710.342 938.468 710.706 937.854 711.706 937.229C712.706 936.621 713.297 935.746 713.297 934.491C713.297 932.718 712.001 931.423 710.001 931.423C708.16 931.423 706.7 932.559 706.615 934.491H708.047C708.132 933.15 709.069 932.604 710.001 932.604C711.069 932.604 711.933 933.309 711.933 934.423C711.933 935.326 711.416 935.974 710.751 936.377C709.637 937.053 708.973 937.712 708.956 939.877V939.945ZM709.683 943.309C710.245 943.309 710.706 942.849 710.706 942.286C710.706 941.724 710.245 941.263 709.683 941.263C709.12 941.263 708.66 941.724 708.66 942.286C708.66 942.849 709.12 943.309 709.683 943.309Z" fill="black"/>
<line x1="674.5" y1="1261" x2="674.5" y2="1360" stroke="#777777" stroke-width="2"/>
<path d="M684 1350L674.5 1360.5L665.5 1350" stroke="#777777" stroke-width="2" stroke-linecap="round" stroke-linejoin="round"/>
<circle cx="674" cy="1256.5" r="5.5" transform="rotate(90 674 1256.5)" stroke="#777777" stroke-width="2"/>
<path d="M668.409 1372.22C671.221 1369.41 675.779 1369.41 678.591 1372.22L740.777 1434.41C743.589 1437.22 743.589 1441.78 740.777 1444.59L678.591 1506.78C675.779 1509.59 671.221 1509.59 668.409 1506.78L606.223 1444.59C603.411 1441.78 603.411 1437.22 606.223 1434.41L668.409 1372.22Z" fill="white" stroke="black" stroke-width="1.6"/>
<path d="M616.778 1445.22H618.187V1440.97H620.733C623.443 1440.97 624.664 1439.32 624.664 1437.26C624.664 1435.21 623.443 1433.58 620.71 1433.58H616.778V1445.22ZM618.187 1439.72V1434.83H620.664C622.557 1434.83 623.278 1435.87 623.278 1437.26C623.278 1438.66 622.557 1439.72 620.687 1439.72H618.187ZM626.753 1445.22H628.093V1439.7C628.093 1438.51 629.025 1437.65 630.298 1437.65C630.656 1437.65 631.025 1437.72 631.116 1437.74V1436.38C630.963 1436.37 630.61 1436.35 630.412 1436.35C629.366 1436.35 628.457 1436.95 628.139 1437.81H628.048V1436.49H626.753V1445.22ZM635.985 1445.4C638.349 1445.4 639.94 1443.6 639.94 1440.9C639.94 1438.17 638.349 1436.38 635.985 1436.38C633.622 1436.38 632.031 1438.17 632.031 1440.9C632.031 1443.6 633.622 1445.4 635.985 1445.4ZM635.985 1444.2C634.19 1444.2 633.372 1442.65 633.372 1440.9C633.372 1439.15 634.19 1437.58 635.985 1437.58C637.781 1437.58 638.599 1439.15 638.599 1440.9C638.599 1442.65 637.781 1444.2 635.985 1444.2ZM641.987 1436.49V1445.85C641.987 1446.74 641.623 1447.24 640.805 1447.24H640.555V1448.49H640.828C642.51 1448.49 643.328 1447.47 643.328 1445.85V1436.49H641.987ZM642.646 1435.04C643.169 1435.04 643.601 1434.63 643.601 1434.13C643.601 1433.63 643.169 1433.22 642.646 1433.22C642.123 1433.22 641.691 1433.63 641.691 1434.13C641.691 1434.63 642.123 1435.04 642.646 1435.04ZM649.443 1445.4C651.216 1445.4 652.511 1444.51 652.92 1443.2L651.625 1442.83C651.284 1443.74 650.494 1444.2 649.443 1444.2C647.869 1444.2 646.784 1443.18 646.721 1441.31H653.057V1440.74C653.057 1437.49 651.125 1436.38 649.307 1436.38C646.943 1436.38 645.375 1438.24 645.375 1440.92C645.375 1443.6 646.92 1445.4 649.443 1445.4ZM646.721 1440.15C646.812 1438.79 647.772 1437.58 649.307 1437.58C650.761 1437.58 651.693 1438.67 651.693 1440.15H646.721ZM658.642 1445.4C660.574 1445.4 661.846 1444.22 662.074 1442.67H660.733C660.483 1443.63 659.687 1444.2 658.642 1444.2C657.051 1444.2 656.028 1442.88 656.028 1440.85C656.028 1438.88 657.074 1437.58 658.642 1437.58C659.824 1437.58 660.528 1438.31 660.733 1439.1H662.074C661.846 1437.47 660.46 1436.38 658.619 1436.38C656.255 1436.38 654.687 1438.24 654.687 1440.9C654.687 1443.51 656.187 1445.4 658.642 1445.4ZM667.829 1436.49H665.966V1434.4H664.625V1436.49H663.307V1437.63H664.625V1443.08C664.625 1444.6 665.852 1445.33 666.988 1445.33C667.488 1445.33 667.807 1445.24 667.988 1445.17L667.716 1443.97C667.602 1443.99 667.42 1444.04 667.125 1444.04C666.534 1444.04 665.966 1443.85 665.966 1442.72V1437.63H667.829V1436.49ZM674.346 1445.22H675.687V1436.49H674.346V1445.22ZM675.028 1435.04C675.551 1435.04 675.983 1434.63 675.983 1434.13C675.983 1433.63 675.551 1433.22 675.028 1433.22C674.505 1433.22 674.074 1433.63 674.074 1434.13C674.074 1434.63 674.505 1435.04 675.028 1435.04ZM684.325 1438.45C683.905 1437.21 682.961 1436.38 681.234 1436.38C679.393 1436.38 678.03 1437.42 678.03 1438.9C678.03 1440.1 678.745 1440.91 680.348 1441.29L681.802 1441.63C682.683 1441.83 683.098 1442.25 683.098 1442.85C683.098 1443.6 682.302 1444.22 681.052 1444.22C679.956 1444.22 679.268 1443.75 679.03 1442.81L677.757 1443.13C678.069 1444.61 679.291 1445.4 681.075 1445.4C683.103 1445.4 684.484 1444.29 684.484 1442.79C684.484 1441.57 683.723 1440.8 682.166 1440.42L680.87 1440.1C679.836 1439.85 679.37 1439.5 679.37 1438.83C679.37 1438.08 680.166 1437.54 681.234 1437.54C682.405 1437.54 682.887 1438.18 683.12 1438.79L684.325 1438.45ZM694.548 1445.4C696.912 1445.4 698.503 1443.6 698.503 1440.9C698.503 1438.17 696.912 1436.38 694.548 1436.38C692.184 1436.38 690.593 1438.17 690.593 1440.9C690.593 1443.6 692.184 1445.4 694.548 1445.4ZM694.548 1444.2C692.753 1444.2 691.934 1442.65 691.934 1440.9C691.934 1439.15 692.753 1437.58 694.548 1437.58C696.343 1437.58 697.162 1439.15 697.162 1440.9C697.162 1442.65 696.343 1444.2 694.548 1444.2ZM707.373 1436.49H705.919L703.51 1443.45H703.419L701.01 1436.49H699.555L702.782 1445.22H704.146L707.373 1436.49ZM712.49 1445.4C714.262 1445.4 715.558 1444.51 715.967 1443.2L714.672 1442.83C714.331 1443.74 713.541 1444.2 712.49 1444.2C710.916 1444.2 709.831 1443.18 709.768 1441.31H716.103V1440.74C716.103 1437.49 714.172 1436.38 712.353 1436.38C709.99 1436.38 708.422 1438.24 708.422 1440.92C708.422 1443.6 709.967 1445.4 712.49 1445.4ZM709.768 1440.15C709.859 1438.79 710.819 1437.58 712.353 1437.58C713.808 1437.58 714.74 1438.67 714.74 1440.15H709.768ZM718.143 1445.22H719.484V1439.7C719.484 1438.51 720.416 1437.65 721.689 1437.65C722.047 1437.65 722.416 1437.72 722.507 1437.74V1436.38C722.353 1436.37 722.001 1436.35 721.802 1436.35C720.757 1436.35 719.848 1436.95 719.53 1437.81H719.439V1436.49H718.143V1445.22ZM725.846 1441.95H727.21V1441.88C727.233 1440.47 727.596 1439.85 728.596 1439.23C729.596 1438.62 730.187 1437.75 730.187 1436.49C730.187 1434.72 728.892 1433.42 726.892 1433.42C725.051 1433.42 723.591 1434.56 723.505 1436.49H724.937C725.022 1435.15 725.96 1434.6 726.892 1434.6C727.96 1434.6 728.824 1435.31 728.824 1436.42C728.824 1437.33 728.307 1437.97 727.642 1438.38C726.528 1439.05 725.863 1439.71 725.846 1441.88V1441.95ZM726.574 1445.31C727.136 1445.31 727.596 1444.85 727.596 1444.29C727.596 1443.72 727.136 1443.26 726.574 1443.26C726.011 1443.26 725.551 1443.72 725.551 1444.29C725.551 1444.85 726.011 1445.31 726.574 1445.31Z" fill="black"/>
<path d="M330.409 352.223C333.221 349.411 337.779 349.411 340.591 352.223L402.777 414.409C405.589 417.221 405.589 421.779 402.777 424.591L340.591 486.777C337.779 489.589 333.221 489.589 330.409 486.777L268.223 424.591C265.411 421.779 265.411 417.221 268.223 414.409L330.409 352.223Z" fill="white" stroke="black" stroke-width="1.6"/>
<path d="M308.329 417.218C307.897 414.832 305.988 413.423 303.647 413.423C300.67 413.423 298.511 415.718 298.511 419.4C298.511 423.082 300.67 425.377 303.647 425.377C305.988 425.377 307.897 423.968 308.329 421.582H306.92C306.579 423.195 305.193 424.059 303.647 424.059C301.534 424.059 299.875 422.423 299.875 419.4C299.875 416.377 301.534 414.741 303.647 414.741C305.193 414.741 306.579 415.604 306.92 417.218H308.329ZM313.97 425.4C316.334 425.4 317.924 423.604 317.924 420.9C317.924 418.173 316.334 416.377 313.97 416.377C311.606 416.377 310.015 418.173 310.015 420.9C310.015 423.604 311.606 425.4 313.97 425.4ZM313.97 424.195C312.174 424.195 311.356 422.65 311.356 420.9C311.356 419.15 312.174 417.582 313.97 417.582C315.765 417.582 316.584 419.15 316.584 420.9C316.584 422.65 315.765 424.195 313.97 424.195ZM321.312 419.968C321.312 418.445 322.255 417.582 323.539 417.582C324.784 417.582 325.539 418.394 325.539 419.763V425.218H326.88V419.673C326.88 417.445 325.693 416.377 323.926 416.377C322.608 416.377 321.789 416.968 321.38 417.854H321.267V416.491H319.971V425.218H321.312V419.968ZM333.126 416.491H331.262V414.4H329.922V416.491H328.603V417.627H329.922V423.082C329.922 424.604 331.149 425.332 332.285 425.332C332.785 425.332 333.103 425.241 333.285 425.173L333.012 423.968C332.899 423.991 332.717 424.036 332.422 424.036C331.831 424.036 331.262 423.854 331.262 422.718V417.627H333.126V416.491ZM335.143 425.218H336.484V416.491H335.143V425.218ZM335.825 415.036C336.348 415.036 336.78 414.627 336.78 414.127C336.78 413.627 336.348 413.218 335.825 413.218C335.302 413.218 334.87 413.627 334.87 414.127C334.87 414.627 335.302 415.036 335.825 415.036ZM340.281 419.968C340.281 418.445 341.224 417.582 342.508 417.582C343.753 417.582 344.508 418.394 344.508 419.763V425.218H345.849V419.673C345.849 417.445 344.662 416.377 342.895 416.377C341.576 416.377 340.758 416.968 340.349 417.854H340.235V416.491H338.94V425.218H340.281V419.968ZM353.799 421.65C353.799 423.286 352.549 424.036 351.549 424.036C350.436 424.036 349.64 423.218 349.64 421.945V416.491H348.299V422.036C348.299 424.263 349.481 425.332 351.118 425.332C352.436 425.332 353.299 424.627 353.709 423.741H353.799V425.218H355.14V416.491H353.799V421.65ZM361.255 425.4C363.028 425.4 364.324 424.513 364.733 423.195L363.437 422.832C363.096 423.741 362.307 424.195 361.255 424.195C359.682 424.195 358.596 423.178 358.534 421.309H364.869V420.741C364.869 417.491 362.937 416.377 361.119 416.377C358.755 416.377 357.187 418.241 357.187 420.923C357.187 423.604 358.733 425.4 361.255 425.4ZM358.534 420.15C358.625 418.792 359.585 417.582 361.119 417.582C362.574 417.582 363.505 418.673 363.505 420.15H358.534ZM368.659 421.945H370.022V421.877C370.045 420.468 370.409 419.854 371.409 419.229C372.409 418.621 373 417.746 373 416.491C373 414.718 371.704 413.423 369.704 413.423C367.863 413.423 366.403 414.559 366.318 416.491H367.75C367.835 415.15 368.772 414.604 369.704 414.604C370.772 414.604 371.636 415.309 371.636 416.423C371.636 417.326 371.119 417.974 370.454 418.377C369.341 419.053 368.676 419.712 368.659 421.877V421.945ZM369.386 425.309C369.949 425.309 370.409 424.849 370.409 424.286C370.409 423.724 369.949 423.263 369.386 423.263C368.824 423.263 368.363 423.724 368.363 424.286C368.363 424.849 368.824 425.309 369.386 425.309Z" fill="black"/>
<path d="M681.68 1159L673.885 1167L666.5 1159" stroke="#777777" stroke-width="2" stroke-linecap="round" stroke-linejoin="round"/>
<circle cx="674" cy="1022.5" r="5.5" transform="rotate(90 674 1022.5)" stroke="#777777" stroke-width="2"/>
<line x1="674" y1="1027" x2="674" y2="1167" stroke="#777777" stroke-width="2"/>
<g clip-path="url(#clip0)">
<rect x="644.5" y="1073" width="59" height="38" rx="7.5" fill="white"/>
<path d="M660.399 1085.86L664.632 1093.16V1097.5H666.734V1093.16L670.967 1085.86H668.587L665.74 1091.01H665.626L662.78 1085.86H660.399ZM674.608 1097.67C676.642 1097.67 678.04 1096.68 678.403 1095.16L676.483 1094.94C676.205 1095.68 675.523 1096.07 674.636 1096.07C673.307 1096.07 672.426 1095.19 672.409 1093.7H678.489V1093.07C678.489 1090.01 676.648 1088.66 674.5 1088.66C672 1088.66 670.369 1090.49 670.369 1093.19C670.369 1095.93 671.977 1097.67 674.608 1097.67ZM672.415 1092.31C672.477 1091.2 673.301 1090.26 674.528 1090.26C675.71 1090.26 676.506 1091.12 676.517 1092.31H672.415ZM687.126 1091.08C686.842 1089.6 685.661 1088.66 683.615 1088.66C681.513 1088.66 680.081 1089.69 680.087 1091.31C680.081 1092.58 680.865 1093.42 682.541 1093.77L684.03 1094.08C684.831 1094.26 685.206 1094.58 685.206 1095.07C685.206 1095.67 684.558 1096.12 683.581 1096.12C682.638 1096.12 682.024 1095.71 681.848 1094.93L679.842 1095.12C680.098 1096.72 681.445 1097.67 683.587 1097.67C685.768 1097.67 687.308 1096.54 687.314 1094.89C687.308 1093.64 686.507 1092.88 684.859 1092.52L683.371 1092.2C682.484 1092.01 682.132 1091.7 682.138 1091.19C682.132 1090.6 682.786 1090.19 683.643 1090.19C684.592 1090.19 685.092 1090.71 685.251 1091.28L687.126 1091.08Z" fill="#777777"/>
<rect x="644.5" y="1073" width="59" height="38" rx="7.5" stroke="#777777"/>
</g>
<path d="M681.68 1661L673.885 1669L666.5 1661" stroke="#777777" stroke-width="2" stroke-linecap="round" stroke-linejoin="round"/>
<circle cx="674" cy="1524.5" r="5.5" transform="rotate(90 674 1524.5)" stroke="#777777" stroke-width="2"/>
<line x1="674" y1="1529" x2="674" y2="1669" stroke="#777777" stroke-width="2"/>
<rect x="644.5" y="1575.5" width="59" height="37" rx="7.5" fill="white"/>
<path d="M660.399 1587.86L664.632 1595.16V1599.5H666.734V1595.16L670.967 1587.86H668.587L665.74 1593.01H665.626L662.78 1587.86H660.399ZM674.608 1599.67C676.642 1599.67 678.04 1598.68 678.403 1597.16L676.483 1596.94C676.205 1597.68 675.523 1598.07 674.636 1598.07C673.307 1598.07 672.426 1597.19 672.409 1595.7H678.489V1595.07C678.489 1592.01 676.648 1590.66 674.5 1590.66C672 1590.66 670.369 1592.49 670.369 1595.19C670.369 1597.93 671.977 1599.67 674.608 1599.67ZM672.415 1594.31C672.477 1593.2 673.301 1592.26 674.528 1592.26C675.71 1592.26 676.506 1593.12 676.517 1594.31H672.415ZM687.126 1593.08C686.842 1591.6 685.661 1590.66 683.615 1590.66C681.513 1590.66 680.081 1591.69 680.087 1593.31C680.081 1594.58 680.865 1595.42 682.541 1595.77L684.03 1596.08C684.831 1596.26 685.206 1596.58 685.206 1597.07C685.206 1597.67 684.558 1598.12 683.581 1598.12C682.638 1598.12 682.024 1597.71 681.848 1596.93L679.842 1597.12C680.098 1598.72 681.445 1599.67 683.587 1599.67C685.768 1599.67 687.308 1598.54 687.314 1596.89C687.308 1595.64 686.507 1594.88 684.859 1594.52L683.371 1594.2C682.484 1594.01 682.132 1593.7 682.138 1593.19C682.132 1592.6 682.786 1592.19 683.643 1592.19C684.592 1592.19 685.092 1592.71 685.251 1593.28L687.126 1593.08Z" fill="#777777"/>
<rect x="644.5" y="1575.5" width="59" height="37" rx="7.5" stroke="#777777"/>
<path d="M586 259C586 254.582 589.582 251 594 251H755C759.418 251 763 254.582 763 259V325C763 329.418 759.418 333 755 333H594C589.582 333 586 329.418 586 325V259Z" fill="#EFEFEF"/>
<path d="M635.529 276.364H633.421V288H635.529V276.364ZM637.3 278.131H640.897V288H642.988V278.131H646.585V276.364H637.3V278.131ZM648.374 288H655.988V286.233H650.482V283.057H655.55V281.29H650.482V278.131H655.942V276.364H648.374V288ZM658.093 288H660.201V283.739H662.349L664.633 288H666.985L664.468 283.386C665.837 282.835 666.559 281.665 666.559 280.085C666.559 277.864 665.127 276.364 662.457 276.364H658.093V288ZM660.201 281.989V278.125H662.133C663.707 278.125 664.411 278.847 664.411 280.085C664.411 281.324 663.707 281.989 662.144 281.989H660.201ZM669.994 288L670.954 285.131H675.329L676.295 288H678.545L674.442 276.364H671.84L667.744 288H669.994ZM671.522 283.438L673.096 278.75H673.187L674.761 283.438H671.522ZM678.16 278.131H681.756V288H683.847V278.131H687.444V276.364H678.16V278.131ZM691.342 276.364H689.234V288H691.342V276.364ZM704.022 282.182C704.022 278.42 701.727 276.205 698.675 276.205C695.619 276.205 693.329 278.42 693.329 282.182C693.329 285.938 695.619 288.159 698.675 288.159C701.727 288.159 704.022 285.943 704.022 282.182ZM701.903 282.182C701.903 284.83 700.573 286.267 698.675 286.267C696.783 286.267 695.448 284.83 695.448 282.182C695.448 279.534 696.783 278.097 698.675 278.097C700.573 278.097 701.903 279.534 701.903 282.182ZM715.577 276.364H713.481V284.295H713.379L707.901 276.364H706.015V288H708.123V280.074H708.219L713.702 288H715.577V276.364ZM633.937 307H636.045V303.068H638.272C640.96 303.068 642.403 301.455 642.403 299.216C642.403 296.994 640.977 295.364 638.3 295.364H633.937V307ZM636.045 301.335V297.125H637.977C639.556 297.125 640.255 297.977 640.255 299.216C640.255 300.455 639.556 301.335 637.988 301.335H636.045ZM644.234 307H651.467V305.233H646.342V295.364H644.234V307ZM655.228 307L656.188 304.131H660.563L661.529 307H663.779L659.677 295.364H657.075L652.978 307H655.228ZM656.756 302.438L658.33 297.75H658.421L659.995 302.438H656.756ZM674.874 295.364H672.778V303.295H672.675L667.198 295.364H665.312V307H667.42V299.074H667.516L672.999 307H674.874V295.364ZM686.734 295.364H684.637V303.295H684.535L679.058 295.364H677.171V307H679.279V299.074H679.376L684.859 307H686.734V295.364ZM691.138 295.364H689.031V307H691.138V295.364ZM702.984 295.364H700.887V303.295H700.785L695.308 295.364H693.421V307H695.529V299.074H695.626L701.109 307H702.984V295.364ZM713.076 299.08H715.224C714.866 296.795 712.888 295.205 710.315 295.205C707.269 295.205 704.985 297.443 704.985 301.193C704.985 304.875 707.167 307.159 710.377 307.159C713.258 307.159 715.32 305.307 715.32 302.307V300.909H710.599V302.557H713.281C713.246 304.216 712.138 305.267 710.388 305.267C708.44 305.267 707.104 303.807 707.104 301.17C707.104 298.551 708.462 297.097 710.343 297.097C711.746 297.097 712.701 297.847 713.076 299.08Z" fill="black"/>
<path d="M594 253H755V249H594V253ZM761 259V325H765V259H761ZM755 331H594V335H755V331ZM588 325V259H584V325H588ZM594 331C590.686 331 588 328.314 588 325H584C584 330.523 588.477 335 594 335V331ZM761 325C761 328.314 758.314 331 755 331V335C760.523 335 765 330.523 765 325H761ZM755 253C758.314 253 761 255.686 761 259H765C765 253.477 760.523 249 755 249V253ZM594 249C588.477 249 584 253.477 584 259H588C588 255.686 590.686 253 594 253V249Z" fill="black"/>
<path d="M586 664C586 659.582 589.582 656 594 656H755C759.418 656 763 659.582 763 664V730C763 734.418 759.418 738 755 738H594C589.582 738 586 734.418 586 730V664Z" fill="#EFEFEF"/>
<path d="M635.529 681.364H633.421V693H635.529V681.364ZM637.3 683.131H640.897V693H642.988V683.131H646.585V681.364H637.3V683.131ZM648.374 693H655.988V691.233H650.482V688.057H655.55V686.29H650.482V683.131H655.942V681.364H648.374V693ZM658.093 693H660.201V688.739H662.349L664.633 693H666.985L664.468 688.386C665.837 687.835 666.559 686.665 666.559 685.085C666.559 682.864 665.127 681.364 662.457 681.364H658.093V693ZM660.201 686.989V683.125H662.133C663.707 683.125 664.411 683.847 664.411 685.085C664.411 686.324 663.707 686.989 662.144 686.989H660.201ZM669.994 693L670.954 690.131H675.329L676.295 693H678.545L674.442 681.364H671.84L667.744 693H669.994ZM671.522 688.438L673.096 683.75H673.187L674.761 688.438H671.522ZM678.16 683.131H681.756V693H683.847V683.131H687.444V681.364H678.16V683.131ZM691.342 681.364H689.234V693H691.342V681.364ZM704.022 687.182C704.022 683.42 701.727 681.205 698.675 681.205C695.619 681.205 693.329 683.42 693.329 687.182C693.329 690.938 695.619 693.159 698.675 693.159C701.727 693.159 704.022 690.943 704.022 687.182ZM701.903 687.182C701.903 689.83 700.573 691.267 698.675 691.267C696.783 691.267 695.448 689.83 695.448 687.182C695.448 684.534 696.783 683.097 698.675 683.097C700.573 683.097 701.903 684.534 701.903 687.182ZM715.577 681.364H713.481V689.295H713.379L707.901 681.364H706.015V693H708.123V685.074H708.219L713.702 693H715.577V681.364ZM644.687 712H646.795V707.739H648.942L651.227 712H653.579L651.062 707.386C652.431 706.835 653.153 705.665 653.153 704.085C653.153 701.864 651.721 700.364 649.05 700.364H644.687V712ZM646.795 705.989V702.125H648.727C650.3 702.125 651.005 702.847 651.005 704.085C651.005 705.324 650.3 705.989 648.738 705.989H646.795ZM655.093 712H662.707V710.233H657.201V707.057H662.269V705.29H657.201V702.131H662.661V700.364H655.093V712ZM666.369 700.364H664.056L668.153 712H670.755L674.857 700.364H672.539L669.516 709.523H669.397L666.369 700.364ZM678.498 700.364H676.39V712H678.498V700.364ZM680.781 712H688.394V710.233H682.888V707.057H687.957V705.29H682.888V702.131H688.349V700.364H680.781V712ZM692.948 712H695.028L697.363 703.835H697.454L699.783 712H701.863L705.147 700.364H702.88L700.783 708.92H700.681L698.437 700.364H696.374L694.136 708.915H694.028L691.931 700.364H689.664L692.948 712Z" fill="black"/>
<path d="M594 658H755V654H594V658ZM761 664V730H765V664H761ZM755 736H594V740H755V736ZM588 730V664H584V730H588ZM594 736C590.686 736 588 733.314 588 730H584C584 735.523 588.477 740 594 740V736ZM761 730C761 733.314 758.314 736 755 736V740C760.523 740 765 735.523 765 730H761ZM755 658C758.314 658 761 660.686 761 664H765C765 658.477 760.523 654 755 654V658ZM594 654C588.477 654 584 658.477 584 664H588C588 660.686 590.686 658 594 658V654Z" fill="black"/>
<path d="M205 622C205 617.582 208.582 614 213 614H453C457.418 614 461 617.582 461 622V726C461 730.418 457.418 734 453 734H213C208.582 734 205 730.418 205 726V622Z" fill="#EFEFEF"/>
<path d="M271.726 651H273.834V646.057H278.669V644.29H273.834V641.131H279.18V639.364H271.726V651ZM281.101 651H288.334V649.233H283.209V639.364H281.101V651ZM300.108 645.182C300.108 641.42 297.812 639.205 294.761 639.205C291.705 639.205 289.415 641.42 289.415 645.182C289.415 648.938 291.705 651.159 294.761 651.159C297.812 651.159 300.108 648.943 300.108 645.182ZM297.989 645.182C297.989 647.83 296.659 649.267 294.761 649.267C292.869 649.267 291.534 647.83 291.534 645.182C291.534 642.534 292.869 641.097 294.761 641.097C296.659 641.097 297.989 642.534 297.989 645.182ZM304.253 651H306.332L308.668 642.835H308.759L311.088 651H313.168L316.452 639.364H314.185L312.088 647.92H311.986L309.741 639.364H307.679L305.44 647.915H305.332L303.236 639.364H300.969L304.253 651ZM320.021 639.364H317.913V651H320.021V639.364ZM331.866 639.364H329.77V647.295H329.668L324.19 639.364H322.304V651H324.412V643.074H324.509L329.991 651H331.866V639.364ZM341.959 643.08H344.107C343.749 640.795 341.771 639.205 339.197 639.205C336.152 639.205 333.868 641.443 333.868 645.193C333.868 648.875 336.05 651.159 339.26 651.159C342.141 651.159 344.203 649.307 344.203 646.307V644.909H339.482V646.557H342.163C342.129 648.216 341.021 649.267 339.271 649.267C337.322 649.267 335.987 647.807 335.987 645.17C335.987 642.551 337.345 641.097 339.226 641.097C340.629 641.097 341.584 641.847 341.959 643.08ZM349.699 641.131H353.295V651H355.386V641.131H358.983V639.364H349.699V641.131ZM360.773 651H368.386V649.233H362.881V646.057H367.949V644.29H362.881V641.131H368.341V639.364H360.773V651ZM371.986 651L372.946 648.131H377.321L378.287 651H380.537L376.435 639.364H373.832L369.736 651H371.986ZM373.514 646.438L375.088 641.75H375.179L376.753 646.438H373.514ZM382.07 639.364V651H384.092V642.989H384.2L387.416 650.966H388.928L392.143 643.006H392.251V651H394.274V639.364H391.695L388.24 647.795H388.104L384.649 639.364H382.07ZM259.717 658.364V665.79C259.717 667.25 258.7 668.295 257.104 668.295C255.501 668.295 254.49 667.25 254.49 665.79V658.364H252.382V665.966C252.382 668.466 254.257 670.176 257.104 670.176C259.939 670.176 261.825 668.466 261.825 665.966V658.364H259.717ZM273.679 658.364H271.582V666.295H271.48L266.003 658.364H264.116V670H266.224V662.074H266.321L271.804 670H273.679V658.364ZM279.919 670C283.464 670 285.567 667.807 285.567 664.17C285.567 660.545 283.464 658.364 279.999 658.364H275.976V670H279.919ZM278.084 668.176V660.188H279.879C282.243 660.188 283.476 661.506 283.476 664.17C283.476 666.847 282.243 668.176 279.817 668.176H278.084ZM287.57 670H295.183V668.233H289.678V665.057H294.746V663.29H289.678V660.131H295.138V658.364H287.57V670ZM297.288 670H299.396V665.739H301.544L303.828 670H306.18L303.663 665.386C305.033 664.835 305.754 663.665 305.754 662.085C305.754 659.864 304.322 658.364 301.652 658.364H297.288V670ZM299.396 663.989V660.125H301.328C302.902 660.125 303.607 660.847 303.607 662.085C303.607 663.324 302.902 663.989 301.339 663.989H299.396ZM314.018 661.562H316.047C316.007 659.597 314.331 658.205 311.854 658.205C309.411 658.205 307.575 659.58 307.581 661.636C307.581 663.307 308.768 664.267 310.683 664.761L312.007 665.102C313.263 665.42 314.092 665.812 314.098 666.716C314.092 667.71 313.149 668.375 311.774 668.375C310.456 668.375 309.433 667.784 309.348 666.562H307.274C307.359 668.875 309.081 670.176 311.791 670.176C314.581 670.176 316.2 668.784 316.206 666.733C316.2 664.716 314.536 663.795 312.786 663.381L311.695 663.108C310.74 662.881 309.706 662.477 309.717 661.506C309.723 660.631 310.507 659.989 311.825 659.989C313.081 659.989 313.911 660.574 314.018 661.562ZM317.574 660.131H321.17V670H323.261V660.131H326.858V658.364H317.574V660.131ZM328.736 670L329.696 667.131H334.071L335.037 670H337.287L333.185 658.364H330.582L326.486 670H328.736ZM330.264 665.438L331.838 660.75H331.929L333.503 665.438H330.264ZM348.382 658.364H346.286V666.295H346.183L340.706 658.364H338.82V670H340.928V662.074H341.024L346.507 670H348.382V658.364ZM354.622 670C358.168 670 360.27 667.807 360.27 664.17C360.27 660.545 358.168 658.364 354.702 658.364H350.679V670H354.622ZM352.787 668.176V660.188H354.582C356.946 660.188 358.179 661.506 358.179 664.17C358.179 666.847 356.946 668.176 354.52 668.176H352.787ZM368.597 661.562H370.625C370.585 659.597 368.909 658.205 366.432 658.205C363.989 658.205 362.153 659.58 362.159 661.636C362.159 663.307 363.347 664.267 365.261 664.761L366.585 665.102C367.841 665.42 368.67 665.812 368.676 666.716C368.67 667.71 367.727 668.375 366.352 668.375C365.034 668.375 364.011 667.784 363.926 666.562H361.852C361.938 668.875 363.659 670.176 366.369 670.176C369.159 670.176 370.778 668.784 370.784 666.733C370.778 664.716 369.114 663.795 367.364 663.381L366.273 663.108C365.318 662.881 364.284 662.477 364.295 661.506C364.301 660.631 365.085 659.989 366.403 659.989C367.659 659.989 368.489 660.574 368.597 661.562ZM379.081 670H381.161L383.496 661.835H383.587L385.916 670H387.996L391.28 658.364H389.013L386.916 666.92H386.814L384.57 658.364H382.507L380.268 666.915H380.161L378.064 658.364H375.797L379.081 670ZM392.741 670H394.849V665.057H400.241V670H402.355V658.364H400.241V663.29H394.849V658.364H392.741V670ZM403.852 658.364L408.085 665.659V670H410.188V665.659L414.42 658.364H412.04L409.193 663.511H409.08L406.233 658.364H403.852ZM263.957 679.131H267.553V689H269.644V679.131H273.241V677.364H263.957V679.131ZM275.031 689H277.138V684.057H282.531V689H284.644V677.364H282.531V682.29H277.138V677.364H275.031V689ZM286.937 689H294.55V687.233H289.045V684.057H294.113V682.29H289.045V679.131H294.505V677.364H286.937V689ZM302.732 677.364H300.624V689H302.732V677.364ZM304.504 679.131H308.1V689H310.191V679.131H313.788V677.364H304.504V679.131ZM315.577 689H323.191V687.233H317.685V684.057H322.754V682.29H317.685V679.131H323.146V677.364H315.577V689ZM325.296 689H327.404V684.739H329.552L331.836 689H334.188L331.671 684.386C333.04 683.835 333.762 682.665 333.762 681.085C333.762 678.864 332.33 677.364 329.66 677.364H325.296V689ZM327.404 682.989V679.125H329.336C330.91 679.125 331.614 679.847 331.614 681.085C331.614 682.324 330.91 682.989 329.347 682.989H327.404ZM337.197 689L338.157 686.131H342.532L343.498 689H345.748L341.646 677.364H339.043L334.947 689H337.197ZM338.725 684.438L340.299 679.75H340.39L341.964 684.438H338.725ZM345.363 679.131H348.96V689H351.05V679.131H354.647V677.364H345.363V679.131ZM358.545 677.364H356.437V689H358.545V677.364ZM371.225 683.182C371.225 679.42 368.93 677.205 365.879 677.205C362.822 677.205 360.532 679.42 360.532 683.182C360.532 686.938 362.822 689.159 365.879 689.159C368.93 689.159 371.225 686.943 371.225 683.182ZM369.106 683.182C369.106 685.83 367.776 687.267 365.879 687.267C363.987 687.267 362.651 685.83 362.651 683.182C362.651 680.534 363.987 679.097 365.879 679.097C367.776 679.097 369.106 680.534 369.106 683.182ZM382.781 677.364H380.684V685.295H380.582L375.104 677.364H373.218V689H375.326V681.074H375.423L380.906 689H382.781V677.364ZM391.154 677.364H389.046V689H391.154V677.364ZM399.761 680.562H401.789C401.749 678.597 400.073 677.205 397.596 677.205C395.153 677.205 393.317 678.58 393.323 680.636C393.323 682.307 394.511 683.267 396.425 683.761L397.749 684.102C399.005 684.42 399.835 684.812 399.84 685.716C399.835 686.71 398.891 687.375 397.516 687.375C396.198 687.375 395.175 686.784 395.09 685.562H393.016C393.102 687.875 394.823 689.176 397.533 689.176C400.323 689.176 401.942 687.784 401.948 685.733C401.942 683.716 400.278 682.795 398.528 682.381L397.437 682.108C396.482 681.881 395.448 681.477 395.46 680.506C395.465 679.631 396.249 678.989 397.567 678.989C398.823 678.989 399.653 679.574 399.761 680.562ZM281.218 696.364H279.121V704.295H279.019L273.542 696.364H271.656V708H273.763V700.074H273.86L279.343 708H281.218V696.364ZM293.913 702.182C293.913 698.42 291.617 696.205 288.566 696.205C285.509 696.205 283.219 698.42 283.219 702.182C283.219 705.938 285.509 708.159 288.566 708.159C291.617 708.159 293.913 705.943 293.913 702.182ZM291.793 702.182C291.793 704.83 290.464 706.267 288.566 706.267C286.674 706.267 285.339 704.83 285.339 702.182C285.339 699.534 286.674 698.097 288.566 698.097C290.464 698.097 291.793 699.534 291.793 702.182ZM294.894 698.131H298.491V708H300.582V698.131H304.178V696.364H294.894V698.131ZM311.431 708L312.391 705.131H316.766L317.732 708H319.982L315.88 696.364H313.278L309.181 708H311.431ZM312.96 703.438L314.533 698.75H314.624L316.198 703.438H312.96ZM330.928 700.29C330.57 697.705 328.582 696.205 326.002 696.205C322.962 696.205 320.673 698.42 320.673 702.182C320.673 705.938 322.934 708.159 326.002 708.159C328.769 708.159 330.604 706.369 330.928 704.148L328.803 704.136C328.536 705.5 327.423 706.267 326.031 706.267C324.144 706.267 322.792 704.852 322.792 702.182C322.792 699.557 324.133 698.097 326.036 698.097C327.451 698.097 328.559 698.898 328.803 700.29H330.928ZM342.819 700.29C342.461 697.705 340.472 696.205 337.893 696.205C334.853 696.205 332.563 698.42 332.563 702.182C332.563 705.938 334.825 708.159 337.893 708.159C340.66 708.159 342.495 706.369 342.819 704.148L340.694 704.136C340.427 705.5 339.313 706.267 337.921 706.267C336.035 706.267 334.683 704.852 334.683 702.182C334.683 699.557 336.023 698.097 337.927 698.097C339.342 698.097 340.45 698.898 340.694 700.29H342.819ZM344.749 708H352.363V706.233H346.857V703.057H351.925V701.29H346.857V698.131H352.317V696.364H344.749V708ZM354.468 708H356.576V704.068H358.803C361.491 704.068 362.934 702.455 362.934 700.216C362.934 697.994 361.508 696.364 358.832 696.364H354.468V708ZM356.576 702.335V698.125H358.508C360.087 698.125 360.786 698.977 360.786 700.216C360.786 701.455 360.087 702.335 358.519 702.335H356.576ZM364.254 698.131H367.85V708H369.941V698.131H373.538V696.364H364.254V698.131ZM375.327 708H382.941V706.233H377.435V703.057H382.504V701.29H377.435V698.131H382.896V696.364H375.327V708ZM388.989 708C392.535 708 394.637 705.807 394.637 702.17C394.637 698.545 392.535 696.364 389.069 696.364H385.046V708H388.989ZM387.154 706.176V698.188H388.95C391.313 698.188 392.546 699.506 392.546 702.17C392.546 704.847 391.313 706.176 388.887 706.176H387.154Z" fill="black"/>
<path d="M213 616H453V612H213V616ZM459 622V726H463V622H459ZM453 732H213V736H453V732ZM207 726V622H203V726H207ZM213 732C209.686 732 207 729.314 207 726H203C203 731.523 207.477 736 213 736V732ZM459 726C459 729.314 456.314 732 453 732V736C458.523 736 463 731.523 463 726H459ZM453 616C456.314 616 459 618.686 459 622H463C463 616.477 458.523 612 453 612V616ZM213 612C207.477 612 203 616.477 203 622H207C207 618.686 209.686 616 213 616V612Z" fill="black"/>
<path d="M586 471C586 466.582 589.582 463 594 463H755C759.418 463 763 466.582 763 471V518C763 522.418 759.418 526 755 526H594C589.582 526 586 522.418 586 518V471Z" fill="#EFEFEF"/>
<path d="M635.529 488.364H633.421V500H635.529V488.364ZM637.3 490.131H640.897V500H642.988V490.131H646.585V488.364H637.3V490.131ZM648.374 500H655.988V498.233H650.482V495.057H655.55V493.29H650.482V490.131H655.942V488.364H648.374V500ZM658.093 500H660.201V495.739H662.349L664.633 500H666.985L664.468 495.386C665.837 494.835 666.559 493.665 666.559 492.085C666.559 489.864 665.127 488.364 662.457 488.364H658.093V500ZM660.201 493.989V490.125H662.133C663.707 490.125 664.411 490.847 664.411 492.085C664.411 493.324 663.707 493.989 662.144 493.989H660.201ZM669.994 500L670.954 497.131H675.329L676.295 500H678.545L674.442 488.364H671.84L667.744 500H669.994ZM671.522 495.438L673.096 490.75H673.187L674.761 495.438H671.522ZM678.16 490.131H681.756V500H683.847V490.131H687.444V488.364H678.16V490.131ZM691.342 488.364H689.234V500H691.342V488.364ZM704.022 494.182C704.022 490.42 701.727 488.205 698.675 488.205C695.619 488.205 693.329 490.42 693.329 494.182C693.329 497.938 695.619 500.159 698.675 500.159C701.727 500.159 704.022 497.943 704.022 494.182ZM701.903 494.182C701.903 496.83 700.573 498.267 698.675 498.267C696.783 498.267 695.448 496.83 695.448 494.182C695.448 491.534 696.783 490.097 698.675 490.097C700.573 490.097 701.903 491.534 701.903 494.182ZM715.577 488.364H713.481V496.295H713.379L707.901 488.364H706.015V500H708.123V492.074H708.219L713.702 500H715.577V488.364Z" fill="black"/>
<path d="M594 465H755V461H594V465ZM761 471V518H765V471H761ZM755 524H594V528H755V524ZM588 518V471H584V518H588ZM594 524C590.686 524 588 521.314 588 518H584C584 523.523 588.477 528 594 528V524ZM761 518C761 521.314 758.314 524 755 524V528C760.523 528 765 523.523 765 518H761ZM755 465C758.314 465 761 467.686 761 471H765C765 465.477 760.523 461 755 461V465ZM594 461C588.477 461 584 465.477 584 471H588C588 467.686 590.686 465 594 465V461Z" fill="black"/>
<path d="M588 1186C588 1181.58 591.582 1178 596 1178H750C754.418 1178 758 1181.58 758 1186V1233C758 1237.42 754.418 1241 750 1241H596C591.582 1241 588 1237.42 588 1233V1186Z" fill="#EFEFEF"/>
<path d="M635.499 1215H637.607V1211.07H639.835C642.522 1211.07 643.965 1209.45 643.965 1207.22C643.965 1204.99 642.539 1203.36 639.863 1203.36H635.499V1215ZM637.607 1209.34V1205.12H639.539C641.119 1205.12 641.817 1205.98 641.817 1207.22C641.817 1208.45 641.119 1209.34 639.55 1209.34H637.607ZM645.994 1215L646.954 1212.13H651.329L652.295 1215H654.545L650.442 1203.36H647.84L643.744 1215H645.994ZM647.522 1210.44L649.096 1205.75H649.187L650.761 1210.44H647.522ZM654.094 1203.36L658.327 1210.66V1215H660.43V1210.66L664.663 1203.36H662.282L659.435 1208.51H659.322L656.475 1203.36H654.094ZM666.156 1203.36V1215H668.178V1206.99H668.286L671.502 1214.97H673.013L676.229 1207.01H676.337V1215H678.36V1203.36H675.781L672.326 1211.8H672.19L668.735 1203.36H666.156ZM680.656 1215H688.269V1213.23H682.763V1210.06H687.832V1208.29H682.763V1205.13H688.224V1203.36H680.656V1215ZM699.937 1203.36H697.84V1211.3H697.738L692.261 1203.36H690.374V1215H692.482V1207.07H692.579L698.062 1215H699.937V1203.36ZM701.722 1205.13H705.319V1215H707.41V1205.13H711.006V1203.36H701.722V1205.13Z" fill="black"/>
<path d="M596 1180H750V1176H596V1180ZM756 1186V1233H760V1186H756ZM750 1239H596V1243H750V1239ZM590 1233V1186H586V1233H590ZM596 1239C592.686 1239 590 1236.31 590 1233H586C586 1238.52 590.477 1243 596 1243V1239ZM756 1233C756 1236.31 753.314 1239 750 1239V1243C755.523 1243 760 1238.52 760 1233H756ZM750 1180C753.314 1180 756 1182.69 756 1186H760C760 1180.48 755.523 1176 750 1176V1180ZM596 1176C590.477 1176 586 1180.48 586 1186H590C590 1182.69 592.686 1180 596 1180V1176Z" fill="black"/>
<path d="M624 1700.5C624 1689.18 633.178 1680 644.5 1680H701.5C712.822 1680 722 1689.18 722 1700.5C722 1711.82 712.822 1721 701.5 1721H644.5C633.178 1721 624 1711.82 624 1700.5Z" fill="#EFEFEF"/>
<path d="M659.492 1706H666.153V1704.45H661.336V1701.67H665.771V1700.13H661.336V1697.36H666.114V1695.82H659.492V1706ZM676.363 1695.82H674.528V1702.76H674.439L669.646 1695.82H667.995V1706H669.84V1699.06H669.924L674.722 1706H676.363V1695.82ZM681.823 1706C684.925 1706 686.764 1704.08 686.764 1700.9C686.764 1697.73 684.925 1695.82 681.892 1695.82H678.372V1706H681.823ZM680.217 1704.4V1697.41H681.788C683.856 1697.41 684.935 1698.57 684.935 1700.9C684.935 1703.24 683.856 1704.4 681.733 1704.4H680.217Z" fill="black"/>
<path d="M644.5 1681.6H701.5V1678.4H644.5V1681.6ZM701.5 1719.4H644.5V1722.6H701.5V1719.4ZM644.5 1719.4C634.062 1719.4 625.6 1710.94 625.6 1700.5H622.4C622.4 1712.71 632.295 1722.6 644.5 1722.6V1719.4ZM720.4 1700.5C720.4 1710.94 711.938 1719.4 701.5 1719.4V1722.6C713.705 1722.6 723.6 1712.71 723.6 1700.5H720.4ZM701.5 1681.6C711.938 1681.6 720.4 1690.06 720.4 1700.5H723.6C723.6 1688.29 713.705 1678.4 701.5 1678.4V1681.6ZM644.5 1678.4C632.295 1678.4 622.4 1688.29 622.4 1700.5H625.6C625.6 1690.06 634.062 1681.6 644.5 1681.6V1678.4Z" fill="black"/>
<circle cx="763" cy="1441.5" r="5.5" transform="rotate(90 763 1441.5)" stroke="#777777" stroke-width="2"/>
<path d="M778.56 293L836 293C847.046 293 856 301.954 856 313L856 1422C856 1433.05 847.046 1442 836 1442L768 1442" stroke="#777777" stroke-width="2"/>
<path d="M789 302.026L779 292.769L789 284" stroke="#777777" stroke-width="2" stroke-linecap="round" stroke-linejoin="round"/>
<rect x="825.5" y="848.5" width="59" height="38" rx="7.5" fill="white"/>
<path d="M854.913 861.364H852.817V869.295H852.714L847.237 861.364H845.351V873H847.459V865.074H847.555L853.038 873H854.913V861.364ZM860.926 873.17C863.483 873.17 865.108 871.369 865.108 868.67C865.108 865.966 863.483 864.159 860.926 864.159C858.369 864.159 856.744 865.966 856.744 868.67C856.744 871.369 858.369 873.17 860.926 873.17ZM860.938 871.523C859.523 871.523 858.83 870.261 858.83 868.665C858.83 867.068 859.523 865.79 860.938 865.79C862.33 865.79 863.023 867.068 863.023 868.665C863.023 870.261 862.33 871.523 860.938 871.523Z" fill="#777777"/>
<rect x="825.5" y="848.5" width="59" height="38" rx="7.5" stroke="#777777"/>
<circle cx="251.5" cy="418.51" r="5.5" transform="rotate(90 251.5 418.51)" stroke="#777777" stroke-width="2"/>
<path d="M616 1701L189 1701C177.954 1701 169 1692.05 169 1681L169 439C169 427.954 177.954 419 189 419L246.617 419" stroke="#777777" stroke-width="2"/>
<path d="M605.5 1691.97L615.5 1701.23L605.5 1710" stroke="#777777" stroke-width="2" stroke-linecap="round" stroke-linejoin="round"/>
<g clip-path="url(#clip1)">
<rect x="141" y="1041.5" width="59" height="38" rx="7.5" fill="white"/>
<path d="M170.913 1054.36H168.817V1062.3H168.714L163.237 1054.36H161.351V1066H163.459V1058.07H163.555L169.038 1066H170.913V1054.36ZM176.926 1066.17C179.483 1066.17 181.108 1064.37 181.108 1061.67C181.108 1058.97 179.483 1057.16 176.926 1057.16C174.369 1057.16 172.744 1058.97 172.744 1061.67C172.744 1064.37 174.369 1066.17 176.926 1066.17ZM176.938 1064.52C175.523 1064.52 174.83 1063.26 174.83 1061.66C174.83 1060.07 175.523 1058.79 176.938 1058.79C178.33 1058.79 179.023 1060.07 179.023 1061.66C179.023 1063.26 178.33 1064.52 176.938 1064.52Z" fill="#777777"/>
<rect x="141" y="1041.5" width="59" height="38" rx="7.5" stroke="#777777"/>
</g>
<defs>
<clipPath id="clip0">
<rect width="60" height="39" fill="white" transform="translate(644 1072.5)"/>
</clipPath>
<clipPath id="clip1">
<rect width="60" height="39" fill="white" transform="translate(140.5 1041)"/>
</clipPath>
</defs>
</svg>
